HIERARCHY
ROOT Hips
{
  OFFSET 3.13124 94.3669 -3.18751
  CHANNELS  6 Xposition Yposition Zposition Zrotation Xrotation Yrotation
  JOINT LeftUpLeg
  {
    OFFSET 8.64259 1.95398 -2.38835
    CHANNELS 3 Zrotation Xrotation Yrotation
    JOINT LeftLeg
    {
      OFFSET 43.7702 0 0
      CHANNELS 3 Zrotation Xrotation Yrotation
      JOINT LeftFoot
      {
        OFFSET 40.6238 0 0
        CHANNELS 3 Zrotation Xrotation Yrotation
        JOINT LeftToeBase
        {
          OFFSET 12.7242 0 0
          CHANNELS 3 Zrotation Xrotation Yrotation
          End Site
          {
            OFFSET 0 0 0
          }
        }
      }
    }
  }
  JOINT RightUpLeg
  {
    OFFSET -8.2249 1.95398 -2.59336
    CHANNELS 3 Zrotation Xrotation Yrotation
    JOINT RightLeg
    {
      OFFSET 43.5653 0 0
      CHANNELS 3 Zrotation Xrotation Yrotation
      JOINT RightFoot
      {
        OFFSET 40.6238 0 0
        CHANNELS 3 Zrotation Xrotation Yrotation
        JOINT RightToeBase
        {
          OFFSET 12.7242 0 0
          CHANNELS 3 Zrotation Xrotation Yrotation
          End Site
          {
            OFFSET 0 0 0
          }
        }
      }
    }
  }
  JOINT Spine
  {
    OFFSET 0.165834 0.87714 6.61349
    CHANNELS 3 Zrotation Xrotation Yrotation
    JOINT Spine1
    {
      OFFSET 7.38962 1.71661e-005 0
      CHANNELS 3 Zrotation Xrotation Yrotation
      JOINT Spine2
      {
        OFFSET 11.9445 1.14441e-005 0
        CHANNELS 3 Zrotation Xrotation Yrotation
        JOINT Spine3
        {
          OFFSET 14.7254 4.19617e-005 0
          CHANNELS 3 Zrotation Xrotation Yrotation
          JOINT Spine4
          {
            OFFSET 10.9679 0 0
            CHANNELS 3 Zrotation Xrotation Yrotation
            JOINT RightShoulder
            {
              OFFSET 2.46616 -1.6653 3.69651
              CHANNELS 3 Zrotation Xrotation Yrotation
              JOINT RightArm
              {
                OFFSET 13.0012 0 0
                CHANNELS 3 Zrotation Xrotation Yrotation
                JOINT RightForeArm
                {
                  OFFSET 28.7848 1.52588e-005 0
                  CHANNELS 3 Zrotation Xrotation Yrotation
                  JOINT RightHand
                  {
                    OFFSET 26.5688 1.52588e-005 0
                    CHANNELS 3 Zrotation Xrotation Yrotation
                    End Site
                    {
                      OFFSET 0 0 0
                    }
                  }
                }
              }
            }
            JOINT LeftShoulder
            {
              OFFSET 2.38034 -1.29275 -3.75231
              CHANNELS 3 Zrotation Xrotation Yrotation
              JOINT LeftArm
              {
                OFFSET 16.3182 6.10352e-005 0
                CHANNELS 3 Zrotation Xrotation Yrotation
                JOINT LeftForeArm
                {
                  OFFSET 27.0901 0 0
                  CHANNELS 3 Zrotation Xrotation Yrotation
                  JOINT LeftHand
                  {
                    OFFSET 24.5451 1.52588e-005 0
                    CHANNELS 3 Zrotation Xrotation Yrotation
                    End Site
                    {
                      OFFSET 0 0 0
                    }
                  }
                }
              }
            }
            JOINT Neck
            {
              OFFSET 5.0226 -0.0266342 0
              CHANNELS 3 Zrotation Xrotation Yrotation
              JOINT Head
              {
                OFFSET 6.69363 2.86102e-005 0
                CHANNELS 3 Zrotation Xrotation Yrotation
                End Site
                {
                  OFFSET 0 0 0
                }
              }
            }
          }
        }
      }
    }
  }
}
MOTION
Frames:	15
Frame Time:	0.0333333
8.95005 92.5981 -18.811 -123.703 -75.1283 -125.2 179.055 16.9578 101.871 -59.5019 -7.30759 0.35596 42.1751 10.5173 8.19123 28.7808 6.24103e-006 1.07264e-005 177.329 4.46607 84.1142 -25.7496 -5.26614 -0.381164 70.3183 0.891403 0.422129 28.7808 1.24941e-005 1.70732e-005 0.79482 7.51448 -92.1953 11.8312 1.06591 -2.75501 0.157611 0.943533 -2.79977 -22.3634 1.84701 -2.30517 -2.35073 1.847 -2.30518 91.1529 -24.567 -106.538 41.7038 8.5208 -5.26268 -3.84835 -13.8283 -4.905 5.05925 -0.741292 -19.3969 -114.77 -65.1618 50.7535 -26.1609 -12.4582 -14.7142 13.2412 79.1219 -14.3432 23.1733 -4.46744 -23.5569 -0.981172 7.73514 20.7354 -5.49337 4.52229 13.7055 
8.02881 92.589 -18.2338 -122.238 -73.8308 -123.964 178.916 17.8879 101.236 -60.6096 -9.05851 0.28091 40.7087 11.5667 9.2966 28.7808 6.24103e-006 1.07264e-005 177.321 3.93981 84.2413 -26.1749 -6.31043 -0.444321 71.0301 0.310232 0.121107 28.7808 1.24941e-005 1.70732e-005 0.814662 7.50885 -92.3287 11.8399 1.06686 -2.92843 0.165948 0.935992 -2.97249 -22.3527 1.89741 -2.47286 -2.34008 1.8974 -2.47286 91.2811 -22.8929 -106.968 41.8267 8.72269 -4.21159 -3.79077 -12.4657 -4.89928 3.86004 -0.538002 -18.1238 -115.168 -65.6942 50.5077 -26.495 -12.1331 -16.422 9.9453 75.1705 -11.0436 19.5584 -5.32559 -30.9917 -2.53673 7.83608 22.8869 -4.48447 4.79719 13.1817 
7.10481 92.6579 -17.6421 -121.287 -72.7286 -123.341 179.03 18.4326 100.442 -60.6136 -6.91256 0.403312 42.0886 10.5312 8.21504 28.7808 6.24103e-006 1.07264e-005 177.291 3.22533 84.251 -26.265 -7.38599 -0.508515 71.5053 -0.336941 -0.204325 28.7808 1.24941e-005 1.70732e-005 0.756661 7.50372 -92.2084 11.8511 0.979346 -2.74474 0.177581 0.857616 -2.78516 -22.3428 1.75877 -2.32389 -2.3301 1.75874 -2.32393 91.0697 -24.3091 -106.818 40.3973 9.23559 -4.23252 -3.78478 -12.3241 -4.89876 3.97884 -0.517503 -17.3043 -113.999 -64.4511 51.3745 -27.9289 -11.3697 -17.4371 6.15928 64.4454 -7.25118 15.1748 -4.47953 -32.2244 -2.97292 8.11644 20.1483 -4.43762 5.41706 16.0986 
6.20953 92.7172 -17.0549 -120.516 -71.8937 -122.864 179.211 18.9056 99.3091 -59.5877 -6.81732 0.377416 43.9741 6.81069 4.89255 28.7808 6.24103e-006 1.07264e-005 177.293 2.54263 84.3108 -26.2541 -8.18666 -0.555711 71.9651 -0.982601 -0.525377 28.7808 1.24941e-005 1.70732e-005 0.682472 7.49496 -92.1194 11.87 0.824028 -2.65778 0.196556 0.70628 -2.69144 -22.3236 1.58451 -2.28757 -2.31092 1.58448 -2.28759 91.1063 -24.4843 -106.673 40.3786 9.20401 -4.42721 -3.7181 -10.7325 -4.89407 3.12037 -0.464888 -18.3888 -113.34 -63.5928 51.8049 -29.4669 -10.514 -18.3485 4.65864 54.2836 -5.74368 13.3781 -3.87067 -31.2134 -3.34806 8.402 19.351 -4.22534 5.8605 17.3032 
5.37183 92.7039 -16.4466 -119.346 -71.0852 -121.907 179.295 20.1019 98.1885 -58.7099 -8.34014 0.265355 42.5494 5.11869 3.54374 28.7808 6.24103e-006 1.07264e-005 177.313 2.08896 84.4393 -26.43 -8.79673 -0.592271 72.5644 -1.63776 -0.841751 28.7808 1.24941e-005 1.70732e-005 0.64394 7.48557 -92.0902 11.8887 0.723456 -2.58921 0.215297 0.608832 -2.61852 -22.3049 1.46797 -2.25246 -2.29226 1.46798 -2.25248 91.2196 -24.5119 -106.412 40.6918 9.04001 -4.63905 -3.67346 -9.6611 -4.89194 2.72821 -0.470506 -20.1549 -113.359 -63.1529 51.6022 -30.029 -10.1181 -19.3213 4.0745 47.8447 -5.15418 12.379 -3.51645 -30.3343 -3.57108 8.50742 18.8831 -4.00721 6.0699 18.2026 
4.6188 92.6539 -15.8139 -118.322 -70.1731 -121.084 179.37 20.9222 97.0183 -57.9319 -17.0749 -0.294063 41.7426 10.7661 8.46882 28.7808 6.24103e-006 1.07264e-005 177.272 1.63339 84.4428 -26.7208 -9.71706 -0.647134 73.2582 -2.04789 -1.03074 28.7808 1.24941e-005 1.70732e-005 0.62637 7.47211 -92.1187 11.915 0.669167 -2.56574 0.241646 0.555597 -2.59269 -22.2785 1.40915 -2.2463 -2.26582 1.40916 -2.24629 91.2804 -24.3274 -106.361 41.3786 8.77895 -4.64302 -3.61063 -8.1462 -4.89044 2.27185 -0.447205 -21.6083 -114.339 -63.5583 50.5702 -29.58 -10.2909 -19.7308 4.0136 47.0414 -5.0927 13.9052 -3.74026 -29.4899 -4.25666 8.38512 19.152 -3.53332 6.10678 18.5854 
3.8438 92.6606 -15.1728 -117.546 -69.4007 -120.456 179.454 21.7173 96.0926 -57.4125 -19.8973 -0.49964 41.9084 11.1164 8.76405 28.7808 6.24103e-006 1.07264e-005 177.259 0.957898 84.5479 -26.6038 -10.4426 -0.686256 73.6657 -2.77655 -1.3655 28.7808 1.24941e-005 1.70732e-005 0.606389 7.4584 -92.1021 11.9409 0.620641 -2.53548 0.267569 0.508577 -2.56031 -22.2526 1.3535 -2.23207 -2.23995 1.35349 -2.23211 91.272 -24.3055 -106.387 42.3401 8.45808 -4.42393 -3.55255 -6.73976 -4.89051 1.67273 -0.390892 -23.0936 -115.534 -64.0795 49.3479 -28.8945 -10.6266 -19.8677 4.04161 47.4149 -5.121 15.2947 -3.88222 -28.4248 -4.90562 8.10873 19.4245 -2.99817 6.00231 18.6725 
3.12868 92.6714 -14.5396 -116.937 -68.6749 -120.019 179.653 22.5743 95.3824 -57.3893 -12.1716 8.74883e-005 44.9622 9.19349 6.78111 28.7808 6.24103e-006 1.07264e-005 177.269 0.324052 84.5907 -26.5843 -11.1623 -0.729152 74.0333 -3.50243 -1.70087 28.7808 1.24941e-005 1.70732e-005 0.608471 7.46079 -92.0215 11.9381 0.612706 -2.50839 0.264799 0.501735 -2.53292 -22.2557 1.33809 -2.2085 -2.24305 1.33807 -2.20853 91.2856 -24.3713 -106.327 43.518 8.06232 -4.18857 -3.47694 -4.90436 -4.89281 1.44276 -0.365073 -23.6791 -116.765 -64.3605 47.9917 -28.7371 -10.7162 -19.7805 4.0005 46.9003 -5.07856 16.1286 -3.84055 -27.102 -5.3368 7.77091 19.8237 -2.64132 5.76681 18.4481 
2.48437 92.6842 -13.8937 -115.87 -68.0148 -119.107 179.873 24.0132 94.116 -57.2705 -7.02346 0.303489 45.2601 6.77483 4.78798 28.7808 6.24103e-006 1.07264e-005 177.261 -0.124881 84.6035 -26.5191 -12.0301 -0.777913 74.2326 -4.15584 -1.99771 28.7808 1.24941e-005 1.70732e-005 0.599082 7.45882 -91.9484 11.9441 0.583205 -2.43127 0.270956 0.475696 -2.45449 -22.2503 1.28654 -2.14433 -2.23768 1.28652 -2.14436 91.1716 -24.8564 -106.377 44.6081 7.6913 -4.00107 -3.41678 -3.4421 -4.89634 1.5414 -0.380059 -23.6235 -117.405 -64.3604 47.2256 -28.8384 -10.6922 -19.5475 3.98309 46.6273 -5.06193 16.4764 -3.67978 -25.7187 -5.34648 7.71294 19.5467 -2.69497 5.72208 18.6663 
1.78694 92.7143 -13.28 -115.511 -67.0247 -118.57 -179.92 24.7219 92.956 -55.722 -4.87805 0.395287 43.3979 4.5818 3.05982 28.7808 6.24103e-006 1.07264e-005 177.312 -1.13548 84.9243 -26.0157 -12.7405 -0.809446 74.298 -4.82837 -2.30194 28.7808 1.24941e-005 1.70732e-005 0.600419 7.5019 -91.9243 11.8581 0.564112 -2.42087 0.185018 0.457065 -2.44324 -22.3363 1.26519 -2.14035 -2.32363 1.26518 -2.14035 90.9456 -25.3223 -106.668 45.5838 7.45533 -3.47887 -3.40781 -3.22405 -4.897 2.2427 -0.483525 -23.1476 -117.685 -64.4301 46.9195 -29.1581 -10.5724 -19.1246 3.97659 46.5393 -5.05534 17.0582 -3.69197 -25.1792 -5.48063 7.72773 19.3161 -2.65381 5.78324 19.0503 
1.17794 92.6036 -12.4828 -114 -66.2319 -117.19 -179.72 25.3693 91.6262 -53.3585 -6.9358 0.219039 43.2432 4.52027 3.01063 28.7808 6.24103e-006 1.07264e-005 177.332 -1.30104 84.894 -26.3756 -13.563 -0.862247 74.9832 -5.26276 -2.48359 28.7808 1.24941e-005 1.70732e-005 0.598933 7.47312 -91.8394 11.915 0.551136 -2.34585 0.241963 0.447346 -2.36786 -22.2802 1.23051 -2.07197 -2.26754 1.2305 -2.07202 90.4523 -26.1477 -107.364 46.4505 7.29084 -2.72106 -3.40721 -3.14187 -4.94783 1.52551 -0.346247 -21.9105 -117.682 -64.3913 46.9047 -29.0397 -10.739 -18.3091 4.18669 49.2505 -5.26735 16.9231 -3.78457 -25.8885 -6.15835 7.58913 18.6716 -2.33076 5.879 19.7743 
0.557791 92.4484 -11.7751 -112.609 -65.5559 -115.782 -179.622 26.4404 90.805 -52.3655 -13.4696 -0.196899 44.2929 12.8099 9.85866 28.7808 6.24103e-006 1.07264e-005 177.37 -1.38091 85.0015 -26.7773 -14.5346 -0.923416 75.6546 -5.75931 -2.67703 28.7808 1.24941e-005 1.70732e-005 0.647352 7.50168 -91.8639 11.8569 0.614854 -2.38173 0.183899 0.509452 -2.40646 -22.3382 1.30208 -2.08709 -2.3256 1.30208 -2.0871 90.4415 -26.2501 -107.359 47.1269 6.84046 -0.200913 -3.59712 -2.71436 -9.34946 4.00224 -0.599631 -19.1965 -117.963 -64.5843 46.6578 -28.4959 -11.0193 -18.1374 4.55321 53.268 -5.63712 16.0378 -3.7679 -26.7716 -5.75134 7.47876 19.666 -2.45407 5.58706 19.0102 
-0.0985483 92.3819 -10.9711 -111.669 -64.8072 -114.743 -179.522 27.0038 89.6186 -50.5903 -16.5148 -0.432444 44.594 10.3426 7.78119 28.7808 6.24103e-006 1.07264e-005 177.387 -2.13256 85.1209 -26.3427 -15.4533 -0.966907 76.1912 -5.80949 -2.68287 28.7808 1.24941e-005 1.70732e-005 0.704573 7.51201 -91.8507 11.8362 0.68384 -2.4377 0.163046 0.57592 -2.46543 -22.3589 1.38471 -2.11899 -2.34626 1.38468 -2.11902 90.1494 -26.5612 -107.833 48.4025 6.93773 -1.59521 -3.47697 -4.82038 -4.93516 1.79955 -0.357203 -20.8374 -118.224 -64.8456 46.4673 -28.3213 -11.1521 -17.696 4.63629 54.0755 -5.72066 17.1835 -3.90422 -26.2096 -6.17904 7.06333 20.463 -2.39612 5.20047 18.4951 
-0.793948 92.4308 -10.1312 -110.382 -64.0679 -113.487 -179.35 26.9183 88.6101 -48.0399 -7.9393 0.0401811 48.5359 5.16323 3.36541 28.7808 6.24103e-006 1.07264e-005 177.409 -2.97001 85.1591 -25.3589 -16.3545 -1.00117 76.2782 -5.90912 -2.73789 28.7808 1.24941e-005 1.70732e-005 0.754293 7.52186 -91.727 11.8201 0.800665 -2.46264 0.146933 0.691516 -2.49518 -22.3755 1.50357 -2.10897 -2.36284 1.50356 -2.109 89.9515 -26.8769 -108.109 49.3057 6.27321 1.84846 -4.00911 -5.20645 -10.5987 2.3496 -0.341379 -17.1678 -118.375 -64.8785 46.3038 -28.033 -11.3286 -17.3464 4.36159 51.2699 -5.44379 16.1794 -3.61478 -25.6931 -6.60336 6.62654 21.0878 -1.89155 4.87581 17.8813 
-1.47682 92.4658 -9.25718 -108.825 -63.321 -111.973 -179.251 26.4787 87.3489 -44.3019 1.01103 0.471962 52.0233 2.22995 1.12682 28.7808 6.24103e-006 1.07264e-005 177.455 -3.63678 85.2007 -24.4147 -17.2259 -1.03446 76.3089 -6.05562 -2.81825 28.7808 1.24941e-005 1.70732e-005 0.799505 7.52275 -91.5615 11.8232 0.91819 -2.42644 0.150249 0.81053 -2.46448 -22.3737 1.60485 -2.03855 -2.36107 1.60483 -2.03858 89.7845 -27.3664 -108.251 50.0715 5.61285 4.54798 -4.5463 -5.60094 -15.4141 3.61498 -0.370266 -14.3206 -118.026 -64.8615 46.7119 -27.7733 -11.4712 -17.1743 3.98498 46.655 -5.06378 14.2034 -2.93509 -23.7862 -6.68275 6.31385 21.2723 -1.92127 4.56228 17.2636 
